<?xml version="1.0" encoding="UTF-8"?>
<svg width="19px" height="24px" viewBox="0 0 19 24" version="1.1" xmlns="http://www.w3.org/2000/svg" xmlns:xlink="http://www.w3.org/1999/xlink">
    <!-- Generator: Sketch 50 (54983) - http://www.bohemiancoding.com/sketch -->
    <title>Group</title>
    <desc>Created with Sketch.</desc>
    <defs></defs>
    <g id="Page-1" stroke="none" stroke-width="1" fill="none" fill-rule="evenodd">
        <g id="Desktop-HD" transform="translate(-157.000000, -185.000000)" fill="#FFFFFF" fill-rule="nonzero">
            <g id="Group" transform="translate(157.000000, 185.000000)">
                <path d="M9.81339829,23.8976857 C11.5965895,23.1405603 13.2511571,22.0706456 14.7010962,20.7873325 C16.1627284,19.4923264 17.4518879,17.916687 18.2236297,16.1130329 C18.6211937,15.1805116 18.8842875,14.2158343 18.9719854,13.2043849 C19.0187576,12.663581 19.001218,12.1169306 19.001218,11.5732034 C19.001218,10.9973203 19.001218,10.418514 19.001218,9.84263094 C19.001218,8.31961023 19.001218,6.79658952 19.001218,5.27356882 C19.001218,4.75615104 19.0216809,4.23288672 19.001218,3.71546894 C19.001218,3.70962241 19.001218,3.70377588 19.001218,3.69792935 C19.001218,3.42606577 18.8170524,3.21851401 18.5714982,3.13373934 C17.5600487,2.78294762 16.545676,2.43215591 15.5342266,2.08136419 C13.9381242,1.52886724 12.3420219,0.973447016 10.7488429,0.420950061 C10.3951279,0.29817296 10.0443362,0.157856273 9.68477467,0.0526187576 C9.50645554,2.56739074e-15 9.38367844,0.0409257004 9.22874543,0.093544458 C9.04750305,0.157856273 8.86333739,0.219244823 8.68209501,0.283556638 C7.15322777,0.812667479 5.6272838,1.34177832 4.09841657,1.87088916 C2.90280146,2.28599269 1.71010962,2.69817296 0.514494519,3.11327649 C0.494031669,3.11912302 0.476492083,3.12789281 0.456029233,3.13373934 C0.21047503,3.21851401 0.0263093788,3.42898904 0.0263093788,3.69792935 C0.0263093788,4.11010962 0.0263093788,4.52228989 0.0263093788,4.93447016 C0.0263093788,6.32886724 0.0263093788,7.72326431 0.0263093788,9.11766139 C0.0263093788,10.2577345 0.0233861145,11.3978076 0.0263093788,12.5378806 C0.0292326431,13.5054811 0.198781973,14.4789281 0.520341048,15.3909866 C1.17807552,17.2706456 2.37369062,18.9222899 3.79732034,20.2991474 C5.20341048,21.6584653 6.84920828,22.7956151 8.61485993,23.6316687 C8.8136419,23.7252132 9.0182704,23.8158343 9.21997564,23.9035323 C9.37198538,23.9678441 9.50353228,24.0087698 9.67015834,23.9619976 C9.8046285,23.9239951 9.95371498,23.8187576 10.0209501,23.6930572 C10.152497,23.4416565 10.1115713,23.0207065 9.81047503,22.8920828 C8.96857491,22.5354446 8.15883069,22.108648 7.38416565,21.6233861 C6.97198538,21.3661389 6.57149817,21.091352 6.18270402,20.8019488 C6.13593179,20.7668697 6.08915956,20.7317905 6.04238733,20.6967113 C5.99853837,20.6616322 5.90791717,20.6119367 6.0043849,20.6674787 C5.89330085,20.6031669 5.79390987,20.5008526 5.69451888,20.4219245 C5.50742996,20.2699147 5.32326431,20.1120585 5.14202192,19.9512789 C4.77953715,19.6297199 4.4316687,19.2935445 4.09841657,18.9398295 C3.93471376,18.7644336 3.77393423,18.5861145 3.61607795,18.4019488 C3.54007308,18.3142509 3.46699147,18.2236297 3.39390987,18.1330085 C3.35883069,18.0891596 3.32082826,18.0423873 3.28574909,17.9985384 C3.27113276,17.9780755 3.24190012,17.9517661 3.23313033,17.9313033 C3.25943971,17.9926918 3.27697929,17.9897686 3.23313033,17.92838 C2.94372716,17.5454324 2.67186358,17.1478685 2.42923264,16.7327649 C2.31522533,16.5369062 2.20414129,16.3381242 2.10182704,16.136419 C2.05213155,16.037028 2.00243605,15.9347138 1.95274056,15.8323995 C1.92935445,15.782704 1.90596833,15.7300853 1.88258222,15.6803898 C1.86504263,15.6423873 1.76857491,15.4465286 1.84165652,15.5897686 C1.74226553,15.3939099 1.67503045,15.1717418 1.60779537,14.96419 C1.5317905,14.7390987 1.46747868,14.5140073 1.41193666,14.2859927 C1.35639464,14.0638246 1.31254568,13.8387333 1.27454324,13.6136419 C1.26577345,13.5668697 1.26285018,13.5171742 1.25408039,13.4704019 C1.29208283,13.625335 1.25408039,13.4645554 1.24823386,13.4177832 C1.23361754,13.2920828 1.22192448,13.1693057 1.21315469,13.0436054 C1.17515225,12.4852619 1.1956151,11.9239951 1.1956151,11.3627284 C1.1956151,10.8102314 1.1956151,10.2606577 1.1956151,9.70816078 C1.1956151,8.21729598 1.1956151,6.72643118 1.1956151,5.23556638 C1.1956151,4.73276492 1.21900122,4.22119367 1.1956151,3.7183922 C1.1956151,3.71254568 1.1956151,3.70669915 1.1956151,3.70085262 C1.05237515,3.88794153 0.909135201,4.07795371 0.76589525,4.26504263 C1.77442144,3.91425091 2.7771011,3.56638246 3.78270402,3.21559074 C5.3817296,2.66017052 6.98075518,2.10767357 8.57978076,1.55225335 C8.94518879,1.42655298 9.31059683,1.30085262 9.67308161,1.17222899 C9.57076736,1.17222899 9.46552984,1.17222899 9.36321559,1.17222899 C10.3658952,1.52009744 11.3714982,1.8679659 12.3741778,2.21583435 C13.9732034,2.77125457 15.5693057,3.32375152 17.1683313,3.87917174 C17.5337393,4.00487211 17.8962241,4.13057247 18.2616322,4.2591961 C18.1183922,4.07210719 17.9751523,3.88209501 17.8319123,3.69500609 C17.8319123,4.09841657 17.8319123,4.49890378 17.8319123,4.90231425 C17.8319123,6.26163216 17.8319123,7.62095006 17.8319123,8.98319123 C17.8319123,10.0881851 17.8319123,11.1961023 17.8319123,12.3010962 C17.8319123,12.552497 17.8319123,12.806821 17.8143727,13.0582217 C17.8056029,13.1693057 17.7968331,13.2803898 17.7851401,13.3914738 C17.7822168,13.4119367 17.7588307,13.593179 17.773447,13.4996346 C17.7851401,13.4177832 17.773447,13.4879415 17.773447,13.5054811 C17.7676005,13.5464068 17.761754,13.5873325 17.7559074,13.6282582 C17.6828258,14.0813642 17.5717418,14.5257004 17.4255786,14.9583435 C17.3904994,15.063581 17.352497,15.1688185 17.3144945,15.274056 C17.2940317,15.3266748 17.2735688,15.3792935 17.253106,15.428989 C17.2414129,15.4552984 17.2326431,15.4816078 17.2209501,15.5079172 C17.2151035,15.5254568 17.1683313,15.6365408 17.2034105,15.5546894 C17.2355664,15.4757613 17.165408,15.6394641 17.1566382,15.6570037 C17.1332521,15.7096224 17.109866,15.7593179 17.0864799,15.8090134 C17.0367844,15.9171742 16.9841657,16.025335 16.9286236,16.1305725 C16.7152253,16.5485993 16.4755177,16.9520097 16.2153471,17.3408039 C16.0779537,17.5425091 15.9347138,17.7412911 15.7885505,17.9371498 C15.771011,17.9605359 15.7242387,18.027771 15.8002436,17.9225335 C15.782704,17.9459196 15.7651644,17.9693057 15.7476248,17.9897686 C15.7154689,18.0306943 15.683313,18.0686967 15.6540804,18.1096224 C15.5751523,18.2060901 15.4991474,18.2996346 15.417296,18.3961023 C15.0986602,18.7702801 14.7624848,19.1269184 14.4116931,19.4660171 C14.0638246,19.8021924 13.7013398,20.1237515 13.3242387,20.4306943 C13.2336175,20.5037759 13.1400731,20.5768575 13.0494519,20.6499391 C12.9968331,20.6908648 13.0786845,20.6294762 13.0816078,20.626553 C13.0611449,20.6440926 13.0348356,20.6616322 13.0114495,20.6791717 C12.9529842,20.7230207 12.8945189,20.7668697 12.8360536,20.8107186 C12.6431181,20.9539586 12.4472594,21.0942753 12.2484775,21.2287454 C11.479659,21.7520097 10.672838,22.219732 9.83093788,22.617296 C9.63215591,22.7108404 9.42752741,22.8014616 9.22582217,22.8891596 C8.94226553,23.0090134 8.86041413,23.447503 9.01534714,23.690134 C9.20243605,23.9824604 9.51230207,24.0263094 9.81339829,23.8976857 Z" id="Shape"></path>
                <path d="M4.56321559,11.3013398 C5.5045067,12.2426309 6.44579781,13.183922 7.39001218,14.1281364 C7.52448234,14.2626066 7.6589525,14.3970767 7.79342266,14.5315469 C8.01559074,14.753715 8.3956151,14.7566382 8.62070646,14.5315469 C9.28428745,13.8679659 9.95079172,13.2014616 10.6143727,12.5378806 C11.6638246,11.4884287 12.7161998,10.4360536 13.7685749,9.38660171 C14.0112058,9.14397077 14.2538368,8.90133983 14.4964677,8.65870889 C14.7127893,8.44238733 14.7303289,8.04482339 14.4964677,7.83142509 C14.2626066,7.6180268 13.9001218,7.60048721 13.6691839,7.83142509 C13.0056029,8.49500609 12.3390987,9.16151035 11.6755177,9.82509135 C10.6231425,10.8774665 9.57369062,11.9269184 8.52131547,12.9792935 C8.27868453,13.2219245 8.03605359,13.4645554 7.79342266,13.7071864 C8.0682095,13.7071864 8.34591961,13.7071864 8.62070646,13.7071864 C7.67941535,12.7658952 6.73812424,11.8246041 5.79390987,10.8803898 C5.65943971,10.7459196 5.52496955,10.6114495 5.39049939,10.4769793 C5.17417783,10.2606577 4.77661389,10.2431181 4.56321559,10.4769793 C4.3498173,10.7079172 4.33227771,11.0704019 4.56321559,11.3013398 Z" id="Shape"></path>
            </g>
        </g>
    </g>
</svg>