<?xml version="1.0" encoding="UTF-8"?>
<svg width="24px" height="22px" viewBox="0 0 24 22" version="1.1" xmlns="http://www.w3.org/2000/svg" xmlns:xlink="http://www.w3.org/1999/xlink">
    <!-- Generator: Sketch 50 (54983) - http://www.bohemiancoding.com/sketch -->
    <title>noun_1446425_cc</title>
    <desc>Created with Sketch.</desc>
    <defs></defs>
    <g id="Page-1" stroke="none" stroke-width="1" fill="none" fill-rule="evenodd">
        <g id="Desktop-HD" transform="translate(-155.000000, -339.000000)" fill="#FFFFFF" fill-rule="nonzero">
            <g id="noun_1446425_cc" transform="translate(155.000000, 339.000000)">
                <path d="M14.5631068,19.2012945 C14.5631068,19.7365696 14.1275081,20.1721683 13.592233,20.1721683 L2.26537217,20.1721683 C1.73009709,20.1721683 1.29449838,19.7365696 1.29449838,19.2012945 L1.29449838,2.26537217 C1.29449838,1.73009709 1.73009709,1.29449838 2.26537217,1.29449838 L13.592233,1.29449838 C14.1275081,1.29449838 14.5631068,1.73009709 14.5631068,2.26537217 L14.5631068,7.27216828 L15.8576052,7.27216828 L15.8576052,2.26537217 C15.8576052,1.01650485 14.8411003,0 13.592233,0 L2.26537217,0 C1.01650485,0 0,1.01650485 0,2.26537217 L0,19.2012945 C0,20.4501618 1.01650485,21.4666667 2.26537217,21.4666667 L13.592233,21.4666667 C14.8411003,21.4666667 15.8576052,20.4501618 15.8576052,19.2012945 L15.8576052,14.1944984 L14.5631068,14.1944984 L14.5631068,19.2012945 Z M18.889644,5.62297735 L17.9744337,6.5381877 L21.5220065,10.0860841 L6.57993528,10.0860841 L6.57993528,11.3805825 L21.5226537,11.3805825 L17.9744337,14.9288026 L18.889644,15.8440129 L24,10.733657 L18.889644,5.62297735 Z" id="Shape"></path>
            </g>
        </g>
    </g>
</svg>