<?xml version="1.0" encoding="UTF-8"?>
<svg width="24px" height="23px" viewBox="0 0 24 23" version="1.1" xmlns="http://www.w3.org/2000/svg" xmlns:xlink="http://www.w3.org/1999/xlink">
    <!-- Generator: Sketch 50 (54983) - http://www.bohemiancoding.com/sketch -->
    <title>Group</title>
    <desc>Created with Sketch.</desc>
    <defs></defs>
    <g id="Page-1" stroke="none" stroke-width="1" fill="none" fill-rule="evenodd">
        <g id="Desktop-HD" transform="translate(-155.000000, -237.000000)" fill="#FFFFFF" fill-rule="nonzero">
            <g id="Group" transform="translate(155.000000, 237.000000)">
                <path d="M7.92480085,10.9641985 C7.50169045,14.0874277 7.69062432,18.1598663 8.22050275,20.3851811 C10.5190368,20.6951794 17.5074247,20.7466017 19.0347228,20.5154113 C19.086389,20.5075905 19.1365705,20.501741 19.2107277,20.4942178 C19.5009942,20.4647704 19.5891986,20.4510427 19.7102423,20.4090011 C20.1282719,20.2638085 20.366917,19.8056547 20.3120418,18.5436749 C20.3024704,18.3235587 20.4062906,18.113874 20.5871485,17.9880442 C21.4466157,17.3900799 21.5782166,16.7263587 21.243088,15.5772266 C21.1370197,15.2135258 21.366872,14.8374349 21.7389163,14.7659382 C21.9034912,14.7343114 22.1576792,14.3803585 22.2755218,13.8737871 C22.3973742,13.3499786 22.3231126,12.884822 22.1538429,12.7390938 C21.865814,12.491123 21.8546311,12.0487505 22.1297631,11.7865434 C22.329084,11.5965861 22.5526564,11.0061469 22.5530594,10.5418242 C22.5538107,9.67618766 22.2647871,9.30519001 21.4179834,9.16239442 C20.9003028,9.07509849 20.3111227,9.01928392 19.6645833,8.99240675 C18.5949414,8.94794088 17.442211,8.98366454 16.3155812,9.07054535 C16.040472,9.09176058 15.7889201,9.11446844 15.5664283,9.13713026 C15.4341098,9.15060751 15.3417254,9.16096681 15.2947531,9.16666518 C15.0366647,9.19797481 14.7851248,9.07075149 14.6574025,8.84430746 C14.6165998,8.77196675 14.5870147,8.68686584 14.5672267,8.58627215 C14.470372,8.09390396 14.5824551,7.12757084 15.0237426,5.43071281 C15.4751463,3.69495562 14.3005242,2.00384324 12.880858,1.36605588 C12.5838627,1.23263024 12.3865919,1.27597068 12.1627433,1.46991982 C12.1651233,1.52244215 12.1674609,1.57768389 12.1697126,1.63532602 C12.1851835,2.03136956 12.1927107,2.43327134 12.1878986,2.81091695 C12.183867,3.12730522 12.1712364,3.41080128 12.1482684,3.65507992 C12.004295,5.18632359 11.7193843,6.05371089 10.8380373,7.75252214 C10.5302959,8.34296966 10.0591993,8.94998924 9.46745991,9.56566702 C9.10474761,9.94305254 8.71809248,10.3012538 8.33149148,10.6300119 C8.19609904,10.7451471 8.07011052,10.8486012 7.95656969,10.9389881 C7.94550072,10.9477998 7.93490695,10.9562052 7.92480085,10.9641985 Z M7.77716879,9.40795698 C8.03869671,9.17467582 8.29655884,8.92851841 8.54048014,8.67472946 C9.05465001,8.13975922 9.45563597,7.62307891 9.70092955,7.15243342 C10.5070091,5.59868435 10.7411649,4.88581625 10.8681999,3.53472296 C10.8875053,3.32939782 10.8986649,3.07891921 10.9022886,2.79453494 C10.9067822,2.44189638 10.8996504,2.06111122 10.8849781,1.68551268 C10.8780027,1.50694659 10.8710656,1.37125694 10.8665487,1.29654532 C10.8587391,1.16737235 10.8900963,1.03884948 10.9565187,0.927787721 C11.0349536,0.796640364 11.1662553,0.629660578 11.3584864,0.464352307 C11.9025517,-0.00351402157 12.6192504,-0.160973007 13.4077397,0.193257136 C15.3394222,1.06106868 16.9031284,3.31234839 16.2680671,5.75431376 C16.0396533,6.63262094 15.9064761,7.30101391 15.8464719,7.81917155 C15.9647314,7.80876485 16.0883116,7.79853982 16.216726,7.78863708 C17.3899662,7.69816184 18.5908479,7.66094598 19.7179854,7.70780195 C20.4148452,7.73677098 21.0562974,7.79753744 21.6317737,7.89457938 C23.1200878,8.14555218 23.8400518,9.06971542 23.8387732,10.5429402 C23.8382703,11.1222756 23.6526561,11.7707731 23.3712639,12.2538497 C23.9105778,13.3070634 23.5264679,15.0360204 22.6072495,15.7401098 C22.8613706,17.0007367 22.6035887,18.0095088 21.6040734,18.8301659 C21.6029578,20.3974245 21.0852034,21.2924992 20.1320842,21.6235424 C19.8816372,21.7105292 19.7351249,21.7333316 19.3404967,21.7733664 C19.2858264,21.7789127 19.2527719,21.7827657 19.227152,21.7866439 C17.6518877,22.0250951 11.167841,21.9914337 8.41038068,21.7003994 C8.34116489,21.8269492 8.22921398,21.9309697 8.08519251,21.9885617 C5.78070822,22.9100899 5.00822297,22.9796702 1.29236832,22.5202147 C1.04047067,22.4890683 0.830480737,22.312624 0.756393723,22.0698615 C-0.308222534,18.5814108 -0.173823691,14.7212433 0.691626295,9.53988018 C0.754231795,9.16506704 1.12654688,8.92606244 1.49339545,9.02519109 C3.46144628,9.55699154 4.75747409,9.60347594 7.36517395,9.31419026 C7.51737252,9.29730609 7.66000581,9.33427741 7.77716879,9.40795698 Z M1.84806021,10.4398194 C1.14694894,14.8924176 1.04974148,18.2995575 1.87060487,21.295537 C4.70392409,21.6361025 5.46687574,21.6052754 7.05429389,21.0102196 C6.41157432,18.6303496 6.18234887,14.1125497 6.66652559,10.6775342 C4.71144068,10.8553495 3.42413301,10.8031836 1.84806021,10.4398194 Z M4.07796467,20.6352007 C3.11851165,20.6352007 2.44216684,20.0258806 2.36252044,18.9851784 C2.27964128,17.9022349 3.13772614,17.25 4.18407672,17.25 C5.09164547,17.25 5.61421457,17.8782758 5.77839385,18.8555437 C5.94503579,19.8474704 5.06839242,20.6352007 4.07796467,20.6352007 Z M4.07796467,19.5637722 C4.46529535,19.5637722 4.76559844,19.2939271 4.72177225,19.0330542 C4.63469665,18.5147415 4.47390835,18.3214286 4.18407672,18.3214286 C3.69383631,18.3214286 3.40319181,18.542349 3.43082502,18.9034195 C3.46723422,19.3791614 3.67215201,19.5637722 4.07796467,19.5637722 Z" id="Shape"></path>
            </g>
        </g>
    </g>
</svg>