<?xml version="1.0" encoding="UTF-8"?>
<svg width="24px" height="18px" viewBox="0 0 24 18" version="1.1" xmlns="http://www.w3.org/2000/svg" xmlns:xlink="http://www.w3.org/1999/xlink">
    <!-- Generator: Sketch 50 (54983) - http://www.bohemiancoding.com/sketch -->
    <title>Group</title>
    <desc>Created with Sketch.</desc>
    <defs></defs>
    <g id="Page-1" stroke="none" stroke-width="1" fill="none" fill-rule="evenodd">
        <g id="Desktop-HD" transform="translate(-155.000000, -291.000000)" fill="#FFFFFF" fill-rule="nonzero">
            <g id="Group" transform="translate(155.000000, 291.000000)">
                <path d="M2.72727275,0 C1.22581366,0 0,1.22581363 0,2.72727545 L0,14.7272782 C0,16.2287236 1.22581366,17.4545509 2.72727275,17.4545509 L21.2727273,17.4545509 C22.7741864,17.4545509 24,16.2287236 24,14.7272782 L24,2.72727545 C24,1.22581363 22.7741864,3.10055012e-14 21.2727273,3.10055012e-14 L2.72727275,3.10055012e-14 Z M2.72727275,1.09090909 L21.2727273,1.09090909 C22.1886927,1.09090909 22.9090909,1.81130727 22.9090909,2.72727545 L22.9090909,14.7272782 C22.9090909,15.6432327 22.1886927,16.3636418 21.2727273,16.3636418 L2.72727275,16.3636418 C1.8113073,16.3636418 1.09090909,15.6432327 1.09090909,14.7272782 L1.09090909,2.72727545 C1.09090909,1.81130727 1.8113073,1.09090909 2.72727275,1.09090909 Z M9.78409093,4.32101181 C9.50155877,4.33605925 9.28185114,4.59744163 9.28977274,4.90909363 L9.28977274,12.54546 C9.28454505,12.7558786 9.38446358,12.9524991 9.54998257,13.0575029 C9.71550157,13.1625067 9.91994045,13.158968 10.0823864,13.0482873 L16.0823864,9.23010544 C16.2493701,9.12976667 16.3532763,8.93689027 16.3532763,8.72726454 C16.3532763,8.51763881 16.2493701,8.3247624 16.0823864,8.22442363 L10.0823864,4.40623909 C9.99306083,4.34523762 9.88905402,4.31552139 9.78409093,4.32101181 Z M10.3380682,5.90623908 L14.7698864,8.72727817 L10.3380682,11.5397782 L10.3380682,5.90623908 Z" id="Shape"></path>
            </g>
        </g>
    </g>
</svg>