<?xml version="1.0" encoding="UTF-8"?>
<svg width="24px" height="24px" viewBox="0 0 24 24" version="1.1" xmlns="http://www.w3.org/2000/svg" xmlns:xlink="http://www.w3.org/1999/xlink">
    <!-- Generator: Sketch 50 (54983) - http://www.bohemiancoding.com/sketch -->
    <title>Group</title>
    <desc>Created with Sketch.</desc>
    <defs></defs>
    <g id="Page-1" stroke="none" stroke-width="1" fill="none" fill-rule="evenodd">
        <g id="Desktop-HD" transform="translate(-155.000000, -134.000000)" fill="#FFFFFF" fill-rule="nonzero">
            <g id="Group" transform="translate(155.000000, 134.000000)">
                <path d="M11.5789474,21.6 L11.5789474,20.7578947 L11.6210526,20.7578947 C11.8736842,20.7578947 12.1263158,20.7578947 12.3789474,20.7578947 L12.4210526,21.6 C12.1263158,21.6 11.8736842,21.6 11.5789474,21.6 Z M7.49473684,20.5052632 C7.24210526,20.3789474 6.98947368,20.2526316 6.77894737,20.0842105 L7.24210526,19.3684211 C7.45263158,19.4947368 7.66315789,19.6210526 7.91578947,19.7473684 L7.49473684,20.5052632 Z M16.4631579,20.5052632 L16.0842105,19.7894737 C16.2947368,19.6631579 16.5473684,19.5368421 16.7578947,19.4105263 L17.2210526,20.1263158 C16.9684211,20.2526316 16.7157895,20.3789474 16.4631579,20.5052632 Z M3.83157895,17.1368421 C3.66315789,16.8842105 3.53684211,16.6736842 3.41052632,16.4210526 L4.16842105,16.0421053 C4.29473684,16.2526316 4.42105263,16.5052632 4.54736842,16.7157895 L3.83157895,17.1368421 Z M20.1684211,17.1368421 L19.4526316,16.6736842 C19.5789474,16.4631579 19.7052632,16.2526316 19.8315789,16 L20.5894737,16.3789474 C20.4631579,16.6736842 20.2947368,16.9263158 20.1684211,17.1368421 Z M2.31578947,12.3368421 C2.31578947,12.0842105 2.31578947,11.7894737 2.31578947,11.4947368 L3.15789474,11.4947368 C3.15789474,11.7473684 3.15789474,12 3.15789474,12.2526316 L2.31578947,12.3368421 Z M20.8421053,12.3368421 C20.8421053,12.0421053 20.8421053,11.7894737 20.8421053,11.5368421 L21.6842105,11.4947368 C21.6842105,11.7894737 21.6842105,12.0421053 21.6842105,12.3368421 L20.8421053,12.3368421 Z M4.16842105,7.83157895 L3.41052632,7.45263158 C3.53684211,7.2 3.66315789,6.94736842 3.83157895,6.73684211 L4.54736842,7.2 C4.42105263,7.36842105 4.29473684,7.62105263 4.16842105,7.83157895 Z M19.8315789,7.83157895 C19.7052632,7.62105263 19.5789474,7.36842105 19.4526316,7.15789474 L20.1684211,6.69473684 C20.3368421,6.94736842 20.4631579,7.15789474 20.5894737,7.41052632 L19.8315789,7.83157895 Z M7.24210526,4.46315789 L6.77894737,3.74736842 C7.03157895,3.57894737 7.24210526,3.45263158 7.49473684,3.32631579 L7.87368421,4.08421053 C7.70526316,4.21052632 7.45263158,4.33684211 7.24210526,4.46315789 Z M16.7578947,4.46315789 C16.5473684,4.33684211 16.3368421,4.21052632 16.0842105,4.08421053 L16.4631579,3.32631579 C16.7157895,3.45263158 16.9684211,3.57894737 17.1789474,3.74736842 L16.7578947,4.46315789 Z M11.6210526,3.07368421 L11.5789474,2.23157895 C11.8736842,2.23157895 12.1263158,2.23157895 12.4210526,2.23157895 L12.3789474,3.07368421 C12.1263158,3.07368421 11.8736842,3.07368421 11.6210526,3.07368421 Z" id="Shape"></path>
                <path d="M12,0.126315789 C5.51578947,0.126315789 0.210526316,5.43157895 0.210526316,11.9157895 C0.210526316,14.6947368 1.17894737,17.3473684 2.94736842,19.4526316 L1.13684211,21.2631579 C1.01052632,21.3894737 0.968421053,21.5578947 1.05263158,21.7263158 C1.09473684,21.8947368 1.26315789,22.0210526 1.43157895,22.0210526 L5.6,22.0210526 C5.81052632,22.0210526 6.02105263,21.8105263 6.02105263,21.6 L6.02105263,17.4315789 C6.02105263,17.2631579 5.93684211,17.0947368 5.76842105,17.0526316 C5.6,16.9684211 5.43157895,17.0105263 5.30526316,17.1368421 L3.57894737,18.8631579 C1.97894737,16.9263158 1.09473684,14.4421053 1.09473684,11.9157895 C1.09473684,5.89473684 6.02105263,0.968421053 12.0421053,0.968421053 C18.0631579,0.968421053 22.9894737,5.89473684 22.9894737,11.9157895 C22.9894737,17.9368421 18.0631579,22.8631579 12.0421053,22.8631579 C11.8315789,22.8631579 11.6210526,23.0736842 11.6210526,23.2842105 C11.6210526,23.4947368 11.8315789,23.7052632 12.0421053,23.7052632 C18.5263158,23.7052632 23.8315789,18.4 23.8315789,11.9157895 C23.8315789,5.43157895 18.4842105,0.126315789 12,0.126315789 Z M5.17894737,18.4421053 L5.17894737,21.1789474 L2.44210526,21.1789474 L5.17894737,18.4421053 Z" id="Shape"></path>
                <path d="M17.8947368,12.3368421 L12,12.3368421 C11.7473684,12.3368421 11.5789474,12.1684211 11.5789474,11.9157895 L11.5789474,4.58947368 C11.5789474,4.33684211 11.7473684,4.16842105 12,4.16842105 C12.2526316,4.16842105 12.4210526,4.33684211 12.4210526,4.58947368 L12.4210526,11.5368421 L17.8947368,11.5368421 C18.1473684,11.5368421 18.3157895,11.7052632 18.3157895,11.9578947 C18.3157895,12.2105263 18.1473684,12.3368421 17.8947368,12.3368421 Z" id="Shape"></path>
            </g>
        </g>
    </g>
</svg>