<?xml version="1.0" encoding="UTF-8"?>
<svg width="24px" height="19px" viewBox="0 0 24 19" version="1.1" xmlns="http://www.w3.org/2000/svg" xmlns:xlink="http://www.w3.org/1999/xlink">
    <!-- Generator: Sketch 50 (54983) - http://www.bohemiancoding.com/sketch -->
    <title>noun_1245750_cc</title>
    <desc>Created with Sketch.</desc>
    <defs></defs>
    <g id="Page-1" stroke="none" stroke-width="1" fill="none" fill-rule="evenodd">
        <g id="Desktop-HD" transform="translate(-155.000000, -86.000000)" fill="#FFFFFF" fill-rule="nonzero">
            <g id="noun_1245750_cc" transform="translate(155.000000, 86.000000)">
                <path d="M7.25609302,6.684 L9.68706977,4.25302326 C9.64493023,4.18465116 9.60055814,4.11795349 9.55451163,4.05265116 L7.06353488,6.54334884 L7.25609302,6.684 Z" id="Shape"></path>
                <path d="M6.84390698,6.38316279 L9.39153488,3.83525581 C9.34186047,3.77413953 9.29051163,3.71525581 9.2372093,3.6572093 L6.65190698,6.2427907 L6.84390698,6.38316279 Z" id="Shape"></path>
                <path d="M6.4587907,5.3427907 L8.66232558,3.13953488 C8.59813953,3.09237209 8.53255814,3.04660465 8.4655814,3.00334884 L6.45906977,5.00986047 L6.45906977,5.3427907 L6.4587907,5.3427907 Z" id="Shape"></path>
                <path d="M6.4587907,4.62976744 L8.22865116,2.86046512 C8.15637209,2.82055814 8.08297674,2.78344186 8.00818605,2.748 L6.4587907,4.29711628 L6.4587907,4.62976744 Z" id="Shape"></path>
                <path d="M6.4587907,3.91702326 L7.7427907,2.63302326 C7.66186047,2.60176744 7.57925581,2.57386047 7.49581395,2.54762791 L6.4587907,3.58437209 L6.4587907,3.91702326 Z" id="Shape"></path>
                <path d="M6.4587907,3.204 L7.19665116,2.46613953 C7.10455814,2.4452093 7.0107907,2.42846512 6.91646512,2.41395349 L6.4587907,2.87162791 L6.4587907,3.204 Z" id="Shape"></path>
                <path d="M6.4587907,6.05553488 L9.04939535,3.46493023 C8.99246512,3.41051163 8.93469767,3.35748837 8.87469767,3.30669767 L6.4587907,5.72260465 L6.4587907,6.05553488 Z" id="Shape"></path>
                <path d="M6.6637907,2.38103488 C6.5952907,2.37653488 6.5272907,2.37403488 6.4587907,2.37153488 L6.4587907,2.58653488 L6.6637907,2.38103488 Z" id="Shape"></path>
                <path d="M7.66827907,6.98511628 L9.9332093,4.72018605 C9.89944186,4.644 9.86344186,4.56893023 9.82493023,4.49553488 L7.47572093,6.84474419 L7.66827907,6.98511628 Z" id="Shape"></path>
                <path d="M8.49265116,7.58734884 L10.2424186,5.8375814 C10.2304186,5.74074419 10.215907,5.64474419 10.1972093,5.55013953 L8.30065116,7.44669767 L8.49265116,7.58734884 Z" id="Shape"></path>
                <path d="M8.08018605,7.28595349 L10.1224186,5.244 C10.0984186,5.15860465 10.072186,5.07432558 10.0426047,4.99144186 L7.88790698,7.14613953 L8.08018605,7.28595349 Z" id="Shape"></path>
                <path d="M9.31674419,8.18986047 L10.1274419,7.37888372 C10.1665116,7.23990698 10.1977674,7.0975814 10.2212093,6.95302326 L9.12474419,8.04948837 L9.31674419,8.18986047 Z" id="Shape"></path>
                <path d="M8.90455814,7.88874419 L10.2664186,6.52688372 C10.2700465,6.45823256 10.2722791,6.38930233 10.2722791,6.31925581 C10.2722791,6.27627907 10.2706047,6.23386047 10.2692093,6.19116279 L8.71227907,7.74837209 L8.90455814,7.88874419 Z" id="Shape"></path>
                <path d="M9.69752249,8.48251163 C9.82356653,8.32240099 9.93708209,8.15583677 10.0369302,7.98251163 L9.53693023,8.38724426 L9.69752249,8.48251163 Z" id="Shape"></path>
                <path d="M22.5329302,18.3184186 L1.46706977,18.3184186 C0.732,18.3184186 0.134232558,17.7203721 0.134232558,16.9855814 L0.134232558,1.4335814 C0.134232558,0.698511628 0.73227907,0.100465116 1.46706977,0.100465116 L22.5329302,0.100465116 C23.268,0.100465116 23.8657674,0.698790698 23.8657674,1.4335814 L23.8657674,16.9855814 C23.8660465,17.7203721 23.268,18.3184186 22.5329302,18.3184186 Z M1.46706977,0.633767442 C1.02613953,0.633767442 0.667255814,0.992372093 0.667255814,1.4335814 L0.667255814,16.9855814 C0.667255814,17.4265116 1.02613953,17.7853953 1.46706977,17.7853953 L22.5329302,17.7853953 C22.9738605,17.7853953 23.3327442,17.4265116 23.3327442,16.9855814 L23.3327442,1.4335814 C23.3327442,0.992372093 22.9738605,0.633767442 22.5329302,0.633767442 L1.46706977,0.633767442 Z" id="Shape"></path>
                <rect id="Rectangle-path" x="13.719907" y="5.34809302" width="1.02334884" height="3.34911628"></rect>
                <rect id="Rectangle-path" x="15.307814" y="5.62744186" width="1.02306977" height="3.07004651"></rect>
                <rect id="Rectangle-path" x="16.8951628" y="6.18586047" width="1.02306977" height="2.51162791"></rect>
                <rect id="Rectangle-path" x="18.4827907" y="4.78967442" width="1.02306977" height="3.90753488"></rect>
                <rect id="Rectangle-path" x="20.0704186" y="4.78967442" width="1.02306977" height="3.90753488"></rect>
                <polygon id="Shape" points="21.0424186 10.9914419 15.6697674 13.6311628 13.7143256 12.4476279 10.1874419 14.0506047 4.47348837 14.5548837 2.22334884 16.1542326 6.75516279 16.1542326 11.4773023 16.1542326 16.304093 16.1542326 17.9413953 16.1542326 21.0262326 16.1542326"></polygon>
                <path d="M6.31395349,10.2608372 C4.13469767,10.2608372 2.36176744,8.48818605 2.36176744,6.30865116 C2.36176744,4.17906977 4.05488372,2.43823256 6.16548837,2.36009302 L6.16548837,6.26986047 L6.16744186,6.26986047 L9.4707907,8.68353488 C9.47051163,8.68353488 9.47051163,8.68353488 9.47051163,8.68353488 C8.74911628,9.64074419 7.6024186,10.2608372 6.31395349,10.2608372 Z" id="Shape"></path>
            </g>
        </g>
    </g>
</svg>