<svg version="1.1" id="Layer_1" xmlns="http://www.w3.org/2000/svg" xmlns:xlink="http://www.w3.org/1999/xlink" x="0px" y="0px"
	 width="100%" height="100%" viewBox="0 0 174.712 43.962" enable-background="new 0 0 174.712 43.962"
	 xml:space="preserve">
<g>
	<g>
		<path d="M60.11,5.683c0-1.396,0.673-1.926,1.829-1.926c1.156,0,1.829,0.529,1.829,1.926c0,1.154-0.673,1.828-1.829,1.828
			C60.784,7.511,60.11,6.837,60.11,5.683z M63.48,33.128c0,0.867-0.674,1.541-1.541,1.541s-1.541-0.674-1.541-1.541V13.58
			c0-0.867,0.674-1.541,1.541-1.541s1.541,0.674,1.541,1.541V33.128z"/>
		<path d="M84.521,14.878V1.542c0-0.867,0.674-1.541,1.541-1.541c0.867,0,1.541,0.674,1.541,1.541v23.883
			c0,6.354-3.948,9.484-9.436,9.484c-6.211,0-9.871-3.707-9.871-11.604s3.466-11.557,9.677-11.557
			C81.056,11.75,83.415,13.337,84.521,14.878z M84.521,18.779c0,0-1.829-4.236-6.354-4.236c-4.382,0-6.789,2.84-6.789,8.764
			c0,6.02,2.359,8.811,6.789,8.811c3.707,0,6.354-2.117,6.354-6.691V18.779z"/>
		<path d="M96.321,17.093c-0.48,0.529-0.818,0.674-1.251,0.674c-0.771,0-1.396-0.625-1.396-1.396c0-0.336,0.096-0.576,0.241-0.818
			c1.348-2.119,3.947-3.803,7.992-3.803c5.585,0,8.666,3.273,8.666,8.186v13.242c0,0.818-0.674,1.492-1.492,1.492
			s-1.492-0.674-1.492-1.492v-1.734c-1.205,2.264-3.996,3.467-6.885,3.467c-5.104,0-8.33-2.455-8.33-6.885
			c0-4.238,3.226-6.789,8.425-6.789h6.79v-1.301c0-3.273-2.167-5.297-5.682-5.297C99.354,14.638,97.813,15.41,96.321,17.093z
			 M107.588,25.955v-2.021h-6.79c-3.128,0-5.296,1.299-5.296,4.092c0,2.504,1.733,4.092,5.489,4.092
			C104.363,32.117,107.588,30.046,107.588,25.955z"/>
		<path d="M119.437,13.58v1.541c0.915-1.639,3.321-3.371,6.547-3.371c6.259,0,10.063,3.66,10.063,11.557
			s-3.805,11.604-10.063,11.604c-3.226,0-5.536-1.732-6.547-3.371v10.883c0,0.818-0.724,1.541-1.542,1.541s-1.539-0.723-1.539-1.541
			V13.58c0-0.867,0.721-1.541,1.539-1.541S119.437,12.712,119.437,13.58z M125.984,32.117c4.43,0,6.935-2.791,6.935-8.811
			s-2.602-8.764-7.031-8.764c-3.563,0-6.547,2.504-6.547,8.764C119.34,29.519,122.229,32.117,125.984,32.117z"/>
		<path d="M137.398,32.406c0-1.59,0.867-2.311,2.264-2.311s2.263,0.721,2.263,2.311s-0.866,2.264-2.263,2.264
			S137.398,33.996,137.398,32.406z"/>
		<path d="M146.306,5.683c0-1.396,0.674-1.926,1.829-1.926s1.829,0.529,1.829,1.926c0,1.154-0.674,1.828-1.829,1.828
			S146.306,6.837,146.306,5.683z M149.677,33.128c0,0.867-0.675,1.541-1.542,1.541c-0.865,0-1.539-0.674-1.539-1.541V13.58
			c0-0.867,0.674-1.541,1.539-1.541c0.867,0,1.542,0.674,1.542,1.541V33.128z"/>
		<path d="M174.712,23.306c0,7.896-3.851,11.604-10.109,11.604c-6.212,0-10.111-3.707-10.111-11.604s3.899-11.557,10.111-11.557
			C170.862,11.75,174.712,15.41,174.712,23.306z M171.583,23.306c0-6.066-2.551-8.764-6.98-8.764c-4.429,0-6.982,2.697-6.982,8.764
			c0,6.164,2.554,8.811,6.982,8.811C169.033,32.117,171.583,29.47,171.583,23.306z"/>
	</g>
	
		<linearGradient id="SVGID_1_" gradientUnits="userSpaceOnUse" x1="-304.5635" y1="295.3882" x2="-304.5635" y2="241.4352" gradientTransform="matrix(0.7071 -0.7071 0.7071 0.7071 47.3297 -383.5245)">
		<stop  offset="0" style="stop-color:#1A6DFF"/>
		<stop  offset="1" style="stop-color:#C822FF"/>
	</linearGradient>
	<path fill="url(#SVGID_1_)" d="M29.277,29.136c3.951-3.951,3.951-10.383,0-14.334c-3.951-3.949-10.382-3.949-14.334,0
		c-3.951,3.951-3.951,10.383,0,14.334C18.895,33.087,25.325,33.087,29.277,29.136z M16.247,16.107c3.233-3.234,8.493-3.234,11.727,0
		c3.233,3.232,3.233,8.492-0.001,11.727c-3.233,3.232-8.493,3.232-11.726,0C13.014,24.599,13.014,19.339,16.247,16.107z"/>
	<g>
		<linearGradient id="SVGID_2_" gradientUnits="userSpaceOnUse" x1="12.874" y1="43.9604" x2="12.874" y2="0.9976">
			<stop  offset="0" style="stop-color:#C822FF"/>
			<stop  offset="1" style="stop-color:#1A6DFF"/>
		</linearGradient>
		<path fill="url(#SVGID_2_)" d="M25.749,42.847l-0.314-1.816c-4.402,0.766-8.889-0.021-12.751-2.182
			c-4.882-2.838-7.067-6.75-7.455-7.451C1.146,24.119,2.176,15.146,7.805,8.966l1.955,1.957c0.458,0.455,1.107,0.627,1.74,0.459
			c0.319-0.086,0.603-0.254,0.828-0.48c0.228-0.227,0.397-0.514,0.482-0.834l1.514-5.715c0.249-0.938-0.006-1.904-0.683-2.58
			c-0.676-0.676-1.642-0.932-2.581-0.682L5.347,2.605c-0.64,0.166-1.144,0.672-1.315,1.309c-0.17,0.633,0.002,1.283,0.46,1.74
			l2.01,2.012C0.339,14.375-0.832,24.123,3.52,32.083C2.444,33.16,1.706,33.9,1.229,34.375c0.661-0.662,1.631-1.629,2.291-2.291l0,0
			c-0.561,0.563-1.483,1.484-2.899,2.9c-1.688,1.688,0.421,3.797,2.108,2.113c0.039-0.041,0.088-0.09,0.149-0.15
			c-0.058,0.059-0.108,0.109-0.149,0.15c0.001-0.002,0.002-0.002,0.002-0.002c1.088-1.09,1.883-1.885,2.449-2.451
			c1.102,1.453,2.414,2.789,4.162,4.129c-1.788,1.789-2.495,2.496-2.579,2.58c0.014-0.016,0.053-0.053,0.112-0.113
			c-1.687,1.689,0.411,3.785,2.098,2.098c1.381-1.381,2.294-2.293,2.859-2.857C16.053,42.826,20.947,43.679,25.749,42.847z
			 M5.819,4.386l5.712-1.514c0.43-0.113,0.707,0.105,0.806,0.203c0.1,0.1,0.318,0.377,0.205,0.805l-1.518,5.701L5.819,4.386z
			 M3.339,36.486c0.407-0.406,1.005-1.006,1.841-1.842l0,0C4.578,35.248,3.863,35.964,3.339,36.486z"/>
		<linearGradient id="SVGID_3_" gradientUnits="userSpaceOnUse" x1="0.9268" y1="34.8374" x2="0.9268" y2="34.519">
			<stop  offset="0" style="stop-color:#C822FF"/>
			<stop  offset="1" style="stop-color:#1A6DFF"/>
		</linearGradient>
		<path fill="url(#SVGID_3_)" d="M1.085,34.519c-0.122,0.123-0.229,0.229-0.317,0.318C0.852,34.753,0.956,34.648,1.085,34.519z"/>
		<linearGradient id="SVGID_4_" gradientUnits="userSpaceOnUse" x1="0.6831" y1="35.0073" x2="0.6831" y2="34.8374">
			<stop  offset="0" style="stop-color:#C822FF"/>
			<stop  offset="1" style="stop-color:#1A6DFF"/>
		</linearGradient>
		<path fill="url(#SVGID_4_)" d="M0.768,34.837c-0.071,0.07-0.128,0.127-0.17,0.17C0.642,34.962,0.699,34.904,0.768,34.837z"/>
		<linearGradient id="SVGID_5_" gradientUnits="userSpaceOnUse" x1="0.5068" y1="35.105" x2="0.5068" y2="35.0913">
			<stop  offset="0" style="stop-color:#C822FF"/>
			<stop  offset="1" style="stop-color:#1A6DFF"/>
		</linearGradient>
		<path fill="url(#SVGID_5_)" d="M0.513,35.091C0.497,35.109,0.496,35.109,0.513,35.091L0.513,35.091z"/>
		<linearGradient id="SVGID_6_" gradientUnits="userSpaceOnUse" x1="0.5557" y1="35.0913" x2="0.5557" y2="35.0073">
			<stop  offset="0" style="stop-color:#C822FF"/>
			<stop  offset="1" style="stop-color:#1A6DFF"/>
		</linearGradient>
		<path fill="url(#SVGID_6_)" d="M0.598,35.007c-0.044,0.043-0.071,0.07-0.085,0.084C0.528,35.076,0.558,35.048,0.598,35.007z"/>
		<linearGradient id="SVGID_7_" gradientUnits="userSpaceOnUse" x1="2.6172" y1="37.2153" x2="2.6172" y2="37.2026">
			<stop  offset="0" style="stop-color:#C822FF"/>
			<stop  offset="1" style="stop-color:#1A6DFF"/>
		</linearGradient>
		<path fill="url(#SVGID_7_)" d="M2.624,37.203C2.607,37.218,2.607,37.22,2.624,37.203L2.624,37.203z"/>
		<linearGradient id="SVGID_8_" gradientUnits="userSpaceOnUse" x1="2.666" y1="37.2026" x2="2.666" y2="37.1167">
			<stop  offset="0" style="stop-color:#C822FF"/>
			<stop  offset="1" style="stop-color:#1A6DFF"/>
		</linearGradient>
		<path fill="url(#SVGID_8_)" d="M2.708,37.117c-0.043,0.045-0.07,0.072-0.084,0.086C2.639,37.187,2.667,37.158,2.708,37.117z"/>
		<linearGradient id="SVGID_9_" gradientUnits="userSpaceOnUse" x1="2.7188" y1="37.1167" x2="2.7188" y2="37.0972">
			<stop  offset="0" style="stop-color:#C822FF"/>
			<stop  offset="1" style="stop-color:#1A6DFF"/>
		</linearGradient>
		<path fill="url(#SVGID_9_)" d="M2.708,37.117c0.007-0.006,0.014-0.014,0.021-0.02l0,0C2.722,37.103,2.714,37.113,2.708,37.117z"/>
	</g>
	<g>
		
			<linearGradient id="SVGID_10_" gradientUnits="userSpaceOnUse" x1="-860.8525" y1="-496.3438" x2="-860.8525" y2="-539.3091" gradientTransform="matrix(-1 0 0 -1 -829.4932 -496.3438)">
			<stop  offset="0" style="stop-color:#1A6DFF"/>
			<stop  offset="1" style="stop-color:#C822FF"/>
		</linearGradient>
		<path fill="url(#SVGID_10_)" d="M18.485,1.115L18.8,2.931c4.402-0.766,8.889,0.021,12.75,2.182
			c4.882,2.838,7.067,6.75,7.455,7.451c4.083,7.279,3.052,16.254-2.576,22.43l-1.955-1.953c-0.458-0.459-1.107-0.631-1.74-0.461
			c-0.319,0.086-0.602,0.254-0.828,0.479c-0.228,0.229-0.397,0.514-0.482,0.836l-1.514,5.713c-0.249,0.941,0.006,1.906,0.683,2.582
			c0.676,0.676,1.642,0.932,2.581,0.684l5.713-1.516c0.64-0.168,1.144-0.672,1.315-1.309c0.17-0.633-0.002-1.283-0.46-1.742
			l-2.01-2.008c6.163-6.711,7.334-16.461,2.982-24.422c1.076-1.076,1.814-1.814,2.291-2.291c-0.661,0.662-1.63,1.631-2.291,2.291
			l0,0c0.561-0.561,1.483-1.482,2.899-2.898c1.688-1.688-0.421-3.797-2.108-2.113c-0.039,0.039-0.088,0.088-0.149,0.148
			c0.059-0.059,0.108-0.107,0.149-0.146c-0.001,0-0.001,0-0.002,0c-1.088,1.09-1.883,1.885-2.449,2.449
			c-1.102-1.451-2.414-2.787-4.162-4.129C36.68,3.4,37.387,2.693,37.47,2.609c-0.014,0.016-0.053,0.053-0.112,0.111
			c1.687-1.688-0.411-3.785-2.098-2.098c-1.381,1.381-2.294,2.295-2.859,2.859C28.181,1.136,23.287,0.281,18.485,1.115z
			 M38.415,39.578l-5.712,1.512c-0.43,0.113-0.707-0.104-0.806-0.203c-0.1-0.1-0.318-0.379-0.205-0.807l1.518-5.699L38.415,39.578z
			 M40.894,7.476c-0.407,0.406-1.005,1.004-1.841,1.84l0,0C39.656,8.714,40.371,8,40.894,7.476z"/>
		
			<linearGradient id="SVGID_11_" gradientUnits="userSpaceOnUse" x1="-872.8008" y1="-505.4683" x2="-872.8008" y2="-505.7866" gradientTransform="matrix(-1 0 0 -1 -829.4932 -496.3438)">
			<stop  offset="0" style="stop-color:#1A6DFF"/>
			<stop  offset="1" style="stop-color:#C822FF"/>
		</linearGradient>
		<path fill="url(#SVGID_11_)" d="M43.149,9.443c0.122-0.123,0.229-0.229,0.317-0.318C43.382,9.208,43.278,9.312,43.149,9.443z"/>
		
			<linearGradient id="SVGID_12_" gradientUnits="userSpaceOnUse" x1="-873.0439" y1="-505.2983" x2="-873.0439" y2="-505.4683" gradientTransform="matrix(-1 0 0 -1 -829.4932 -496.3438)">
			<stop  offset="0" style="stop-color:#1A6DFF"/>
			<stop  offset="1" style="stop-color:#C822FF"/>
		</linearGradient>
		<path fill="url(#SVGID_12_)" d="M43.466,9.125c0.071-0.07,0.128-0.127,0.17-0.17C43.592,9,43.535,9.056,43.466,9.125z"/>
		
			<linearGradient id="SVGID_13_" gradientUnits="userSpaceOnUse" x1="-873.2207" y1="-505.2012" x2="-873.2207" y2="-505.2144" gradientTransform="matrix(-1 0 0 -1 -829.4932 -496.3438)">
			<stop  offset="0" style="stop-color:#1A6DFF"/>
			<stop  offset="1" style="stop-color:#C822FF"/>
		</linearGradient>
		<path fill="url(#SVGID_13_)" d="M43.721,8.871C43.737,8.853,43.738,8.853,43.721,8.871L43.721,8.871z"/>
		
			<linearGradient id="SVGID_14_" gradientUnits="userSpaceOnUse" x1="-873.1719" y1="-505.2144" x2="-873.1719" y2="-505.2983" gradientTransform="matrix(-1 0 0 -1 -829.4932 -496.3438)">
			<stop  offset="0" style="stop-color:#1A6DFF"/>
			<stop  offset="1" style="stop-color:#C822FF"/>
		</linearGradient>
		<path fill="url(#SVGID_14_)" d="M43.636,8.955c0.043-0.043,0.071-0.07,0.085-0.084C43.706,8.886,43.676,8.914,43.636,8.955z"/>
		
			<linearGradient id="SVGID_15_" gradientUnits="userSpaceOnUse" x1="-871.1099" y1="-503.0913" x2="-871.1099" y2="-503.103" gradientTransform="matrix(-1 0 0 -1 -829.4932 -496.3438)">
			<stop  offset="0" style="stop-color:#1A6DFF"/>
			<stop  offset="1" style="stop-color:#C822FF"/>
		</linearGradient>
		<path fill="url(#SVGID_15_)" d="M41.61,6.759C41.627,6.744,41.627,6.744,41.61,6.759L41.61,6.759z"/>
		
			<linearGradient id="SVGID_16_" gradientUnits="userSpaceOnUse" x1="-871.0615" y1="-503.103" x2="-871.0615" y2="-503.189" gradientTransform="matrix(-1 0 0 -1 -829.4932 -496.3438)">
			<stop  offset="0" style="stop-color:#1A6DFF"/>
			<stop  offset="1" style="stop-color:#C822FF"/>
		</linearGradient>
		<path fill="url(#SVGID_16_)" d="M41.526,6.845c0.043-0.043,0.07-0.07,0.084-0.086C41.595,6.775,41.566,6.804,41.526,6.845z"/>
		
			<linearGradient id="SVGID_17_" gradientUnits="userSpaceOnUse" x1="-871.0088" y1="-503.189" x2="-871.0088" y2="-503.2104" gradientTransform="matrix(-1 0 0 -1 -829.4932 -496.3438)">
			<stop  offset="0" style="stop-color:#1A6DFF"/>
			<stop  offset="1" style="stop-color:#C822FF"/>
		</linearGradient>
		<path fill="url(#SVGID_17_)" d="M41.526,6.845c-0.006,0.006-0.014,0.014-0.021,0.021c0-0.002,0-0.002,0-0.002
			C41.512,6.859,41.52,6.851,41.526,6.845z"/>
	</g>
</g>
</svg>
